<svg id="visual" viewBox="0 0 1519 3142" width="1519" height="3142" xmlns="http://www.w3.org/2000/svg" xmlns:xlink="http://www.w3.org/1999/xlink" version="1.1"><rect x="0" y="0" width="1519" height="3142" fill="#ffffff"></rect><path d="M0 2068L36.2 2033.8C72.3 1999.7 144.7 1931.3 217 1955.3C289.3 1979.3 361.7 2095.7 434 2157C506.3 2218.3 578.7 2224.7 651 2207C723.3 2189.3 795.7 2147.7 868 2121.3C940.3 2095 1012.7 2084 1085 2043.8C1157.3 2003.7 1229.7 1934.3 1302 1950.5C1374.3 1966.7 1446.7 2068.3 1482.8 2119.2L1519 2170L1519 3143L1482.8 3143C1446.7 3143 1374.3 3143 1302 3143C1229.7 3143 1157.3 3143 1085 3143C1012.7 3143 940.3 3143 868 3143C795.7 3143 723.3 3143 651 3143C578.7 3143 506.3 3143 434 3143C361.7 3143 289.3 3143 217 3143C144.7 3143 72.3 3143 36.2 3143L0 3143Z" fill="#bae0ff"></path><path d="M0 2152L36.2 2186.7C72.3 2221.3 144.7 2290.7 217 2333C289.3 2375.3 361.7 2390.7 434 2412.3C506.3 2434 578.7 2462 651 2444.3C723.3 2426.7 795.7 2363.3 868 2312.7C940.3 2262 1012.7 2224 1085 2186.2C1157.3 2148.3 1229.7 2110.7 1302 2115.8C1374.3 2121 1446.7 2169 1482.8 2193L1519 2217L1519 3143L1482.8 3143C1446.7 3143 1374.3 3143 1302 3143C1229.7 3143 1157.3 3143 1085 3143C1012.7 3143 940.3 3143 868 3143C795.7 3143 723.3 3143 651 3143C578.7 3143 506.3 3143 434 3143C361.7 3143 289.3 3143 217 3143C144.7 3143 72.3 3143 36.2 3143L0 3143Z" fill="#8fc5f8"></path><path d="M0 2460L36.2 2471.3C72.3 2482.7 144.7 2505.3 217 2497.2C289.3 2489 361.7 2450 434 2427.5C506.3 2405 578.7 2399 651 2417C723.3 2435 795.7 2477 868 2493.8C940.3 2510.7 1012.7 2502.3 1085 2477.8C1157.3 2453.3 1229.7 2412.7 1302 2431.3C1374.3 2450 1446.7 2528 1482.8 2567L1519 2606L1519 3143L1482.8 3143C1446.7 3143 1374.3 3143 1302 3143C1229.7 3143 1157.3 3143 1085 3143C1012.7 3143 940.3 3143 868 3143C795.7 3143 723.3 3143 651 3143C578.7 3143 506.3 3143 434 3143C361.7 3143 289.3 3143 217 3143C144.7 3143 72.3 3143 36.2 3143L0 3143Z" fill="#66a9f1"></path><path d="M0 2835L36.2 2825C72.3 2815 144.7 2795 217 2751C289.3 2707 361.7 2639 434 2647.3C506.3 2655.7 578.7 2740.3 651 2776.5C723.3 2812.7 795.7 2800.3 868 2797.3C940.3 2794.3 1012.7 2800.7 1085 2767.7C1157.3 2734.7 1229.7 2662.3 1302 2643.2C1374.3 2624 1446.7 2658 1482.8 2675L1519 2692L1519 3143L1482.8 3143C1446.7 3143 1374.3 3143 1302 3143C1229.7 3143 1157.3 3143 1085 3143C1012.7 3143 940.3 3143 868 3143C795.7 3143 723.3 3143 651 3143C578.7 3143 506.3 3143 434 3143C361.7 3143 289.3 3143 217 3143C144.7 3143 72.3 3143 36.2 3143L0 3143Z" fill="#3f8ce8"></path><path d="M0 2817L36.2 2848.7C72.3 2880.3 144.7 2943.7 217 2954C289.3 2964.3 361.7 2921.7 434 2885.8C506.3 2850 578.7 2821 651 2827C723.3 2833 795.7 2874 868 2877.8C940.3 2881.7 1012.7 2848.3 1085 2857.2C1157.3 2866 1229.7 2917 1302 2912.3C1374.3 2907.7 1446.7 2847.3 1482.8 2817.2L1519 2787L1519 3143L1482.8 3143C1446.7 3143 1374.3 3143 1302 3143C1229.7 3143 1157.3 3143 1085 3143C1012.7 3143 940.3 3143 868 3143C795.7 3143 723.3 3143 651 3143C578.7 3143 506.3 3143 434 3143C361.7 3143 289.3 3143 217 3143C144.7 3143 72.3 3143 36.2 3143L0 3143Z" fill="#196edc"></path></svg>